<svg width="24" height="24" viewBox="0 0 24 24" fill="none" xmlns="http://www.w3.org/2000/svg">
  <path d="M12.75 8C12.75 7.58579 12.4142 7.25 12 7.25C11.5858 7.25 11.25 7.58579 11.25 8H12H12.75ZM15 13.75C15.4142 13.75 15.75 13.4142 15.75 13C15.75 12.5858 15.4142 12.25 15 12.25V13V13.75ZM2.53148 2.66435C2.20803 2.92311 2.15559 3.39507 2.41435 3.71852C2.67311 4.04197 3.14507 4.09441 3.46852 3.83565L3 3.25L2.53148 2.66435ZM5.96852 1.83565C6.29197 1.57689 6.34441 1.10493 6.08565 0.781479C5.82689 0.458032 5.35493 0.405591 5.03148 0.664348L5.5 1.25L5.96852 1.83565ZM20.5315 3.83565C20.8549 4.09441 21.3269 4.04197 21.5857 3.71852C21.8444 3.39507 21.792 2.92311 21.4685 2.66435L21 3.25L20.5315 3.83565ZM18.9685 0.664348C18.6451 0.405591 18.1731 0.458032 17.9143 0.781479C17.6556 1.10493 17.708 1.57689 18.0315 1.83565L18.5 1.25L18.9685 0.664348ZM12 11.5H11.25H12ZM12 8H11.25L11.25 11.5H12L12.75 11.5L12.75 8H12ZM22 12H21.25C21.25 17.1086 17.1086 21.25 12 21.25V22V22.75C17.9371 22.75 22.75 17.9371 22.75 12H22ZM12 22V21.25C6.89137 21.25 2.75 17.1086 2.75 12H2H1.25C1.25 17.9371 6.06294 22.75 12 22.75V22ZM2 12H2.75C2.75 6.89137 6.89137 2.75 12 2.75V2V1.25C6.06294 1.25 1.25 6.06294 1.25 12H2ZM12 2V2.75C17.1086 2.75 21.25 6.89137 21.25 12H22H22.75C22.75 6.06294 17.9371 1.25 12 1.25V2ZM3 3.25L3.46852 3.83565L5.96852 1.83565L5.5 1.25L5.03148 0.664348L2.53148 2.66435L3 3.25ZM21 3.25L21.4685 2.66435L18.9685 0.664348L18.5 1.25L18.0315 1.83565L20.5315 3.83565L21 3.25ZM13.5 13V13.75H15V13V12.25H13.5V13ZM12 11.5H11.25C11.25 12.7426 12.2574 13.75 13.5 13.75V13V12.25C13.0858 12.25 12.75 11.9142 12.75 11.5L12 11.5Z" fill="#66656A"/>
</svg>
